<?xml version="1.0" encoding="UTF-8"?>
<svg width="60%" height="110pt" version="1.1" viewBox="0 0 700 700" xmlns="http://www.w3.org/2000/svg" xmlns:xlink="http://www.w3.org/1999/xlink">
 <defs>
  <symbol id="v" overflow="visible">
   <path d="m2.8125-0.17188c-0.14844 0.074219-0.29688 0.13281-0.45312 0.17188s-0.32422 0.0625-0.5 0.0625c-0.51172 0-0.91797-0.14062-1.2188-0.42188-0.29297-0.28906-0.4375-0.67578-0.4375-1.1562 0-0.48828 0.14453-0.875 0.4375-1.1562 0.30078-0.28906 0.70703-0.4375 1.2188-0.4375 0.17578 0 0.34375 0.023437 0.5 0.0625 0.15625 0.03125 0.30469 0.089844 0.45312 0.17188v0.625c-0.14844-0.09375-0.29297-0.16016-0.4375-0.20312-0.14844-0.050781-0.29688-0.078125-0.45312-0.078125-0.28125 0-0.50781 0.089844-0.67188 0.26562-0.15625 0.17969-0.23438 0.42969-0.23438 0.75 0 0.3125 0.078125 0.55859 0.23438 0.73438 0.16406 0.17969 0.39062 0.26562 0.67188 0.26562 0.15625 0 0.30469-0.019531 0.45312-0.0625 0.14453-0.050781 0.28906-0.125 0.4375-0.21875z"/>
  </symbol>
  <symbol id="d" overflow="visible">
   <path d="m2.0469-1.6719c-0.0625-0.03125-0.125-0.050781-0.1875-0.0625-0.0625-0.007813-0.125-0.015625-0.1875-0.015625-0.1875 0-0.33594 0.0625-0.4375 0.1875-0.10547 0.11719-0.15625 0.28125-0.15625 0.5v1.0625h-0.71875v-2.2969h0.71875v0.39062c0.09375-0.15625 0.20312-0.26562 0.32812-0.32812 0.125-0.070313 0.26953-0.10938 0.4375-0.10938h0.078125c0.03125 0 0.070313 0.007812 0.125 0.015625z"/>
  </symbol>
  <symbol id="c" overflow="visible">
   <path d="m2.6406-1.1562v0.21875h-1.7188c0.019531 0.16797 0.082031 0.29688 0.1875 0.39062 0.10156 0.085937 0.25391 0.125 0.45312 0.125 0.15625 0 0.3125-0.019531 0.46875-0.0625 0.16406-0.050781 0.33203-0.125 0.5-0.21875v0.5625c-0.17969 0.0625-0.35547 0.10938-0.53125 0.14062-0.16797 0.039062-0.33984 0.0625-0.51562 0.0625-0.40625 0-0.72656-0.10156-0.95312-0.3125-0.23047-0.21875-0.34375-0.51562-0.34375-0.89062s0.10938-0.66406 0.32812-0.875c0.22656-0.21875 0.53906-0.32812 0.9375-0.32812 0.35156 0 0.64062 0.10938 0.85938 0.32812s0.32812 0.50781 0.32812 0.85938zm-0.75-0.23438c0-0.14453-0.042969-0.25781-0.125-0.34375-0.085937-0.082031-0.1875-0.125-0.3125-0.125-0.14844 0-0.26562 0.042969-0.35938 0.125-0.085938 0.074219-0.13672 0.1875-0.15625 0.34375z"/>
  </symbol>
  <symbol id="b" overflow="visible">
   <path d="m1.375-1.0312c-0.14844 0-0.26172 0.027344-0.34375 0.078125-0.074219 0.054687-0.10938 0.13281-0.10938 0.23438 0 0.09375 0.03125 0.16797 0.09375 0.21875 0.0625 0.054688 0.14453 0.078125 0.25 0.078125 0.13281 0 0.25-0.046875 0.34375-0.14062 0.10156-0.10156 0.15625-0.23438 0.15625-0.39062v-0.078125zm1.125-0.28125v1.3125h-0.73438v-0.34375c-0.10547 0.14844-0.21875 0.25-0.34375 0.3125-0.11719 0.0625-0.26172 0.09375-0.4375 0.09375-0.24219 0-0.43359-0.066406-0.57812-0.20312-0.14844-0.14453-0.21875-0.32812-0.21875-0.54688 0-0.26953 0.085938-0.46875 0.26562-0.59375 0.1875-0.125 0.47656-0.1875 0.875-0.1875h0.4375v-0.046875c0-0.125-0.046875-0.21094-0.14062-0.26562-0.09375-0.050781-0.24219-0.078125-0.4375-0.078125-0.15625 0-0.30469 0.015625-0.4375 0.046875-0.13672 0.03125-0.26172 0.078125-0.375 0.14062v-0.5625c0.15625-0.03125 0.3125-0.054687 0.46875-0.078125 0.16406-0.019531 0.32812-0.03125 0.48438-0.03125 0.41406 0 0.71094 0.085938 0.89062 0.25 0.1875 0.15625 0.28125 0.41797 0.28125 0.78125z"/>
  </symbol>
  <symbol id="a" overflow="visible">
   <path d="m1.1562-2.9375v0.64062h0.75v0.53125h-0.75v0.96875c0 0.10547 0.019531 0.17969 0.0625 0.21875 0.039062 0.03125 0.125 0.046875 0.25 0.046875h0.375v0.53125h-0.625c-0.29297 0-0.5-0.054688-0.625-0.17188-0.11719-0.125-0.17188-0.33203-0.17188-0.625v-0.96875h-0.35938v-0.53125h0.35938v-0.64062z"/>
  </symbol>
  <symbol id="l" overflow="visible">
   <path d="m1.9062-1.9531v-1.2344h0.73438v3.1875h-0.73438v-0.32812c-0.09375 0.13672-0.20312 0.23438-0.32812 0.29688s-0.26562 0.09375-0.42188 0.09375c-0.28125 0-0.51562-0.10938-0.70312-0.32812-0.17969-0.22656-0.26562-0.51953-0.26562-0.875 0-0.35156 0.085938-0.64062 0.26562-0.85938 0.1875-0.22656 0.42188-0.34375 0.70312-0.34375 0.15625 0 0.29688 0.03125 0.42188 0.09375s0.23438 0.16406 0.32812 0.29688zm-0.48438 1.4844c0.15625 0 0.27344-0.054688 0.35938-0.17188 0.082031-0.11328 0.125-0.28125 0.125-0.5s-0.042969-0.38281-0.125-0.5c-0.085938-0.11328-0.20312-0.17188-0.35938-0.17188s-0.27734 0.058594-0.35938 0.17188c-0.074219 0.11719-0.10938 0.28125-0.10938 0.5s0.035156 0.38672 0.10938 0.5c0.082031 0.11719 0.20312 0.17188 0.35938 0.17188z"/>
  </symbol>
  <symbol id="g" overflow="visible">
   <path d="m1.5781-0.46875c0.15625 0 0.26953-0.054688 0.34375-0.17188 0.082031-0.11328 0.125-0.28125 0.125-0.5s-0.042969-0.38281-0.125-0.5c-0.074219-0.11328-0.1875-0.17188-0.34375-0.17188-0.16797 0-0.29297 0.058594-0.375 0.17188-0.085937 0.11719-0.125 0.28125-0.125 0.5s0.039063 0.38672 0.125 0.5c0.082031 0.11719 0.20703 0.17188 0.375 0.17188zm-0.5-1.4844c0.10156-0.13281 0.21875-0.23438 0.34375-0.29688s0.26562-0.09375 0.42188-0.09375c0.28125 0 0.50781 0.11719 0.6875 0.34375 0.1875 0.21875 0.28125 0.50781 0.28125 0.85938 0 0.35547-0.09375 0.64844-0.28125 0.875-0.17969 0.21875-0.40625 0.32812-0.6875 0.32812-0.15625 0-0.29688-0.03125-0.42188-0.09375s-0.24219-0.16016-0.34375-0.29688v0.32812h-0.71875v-3.1875h0.71875z"/>
  </symbol>
  <symbol id="f" overflow="visible">
   <path d="m0.046875-2.2969h0.73438l0.625 1.5625 0.51562-1.5625h0.73438l-0.96875 2.5156c-0.09375 0.25-0.21094 0.42578-0.34375 0.53125-0.125 0.10156-0.29297 0.15625-0.5 0.15625h-0.42188v-0.48438h0.21875c0.125 0 0.21094-0.023437 0.26562-0.0625 0.0625-0.042969 0.10938-0.10938 0.14062-0.20312l0.03125-0.0625z"/>
  </symbol>
  <symbol id="k" overflow="visible">
   <path d="m3.125-0.23438c-0.19922 0.10547-0.40234 0.18359-0.60938 0.23438-0.21094 0.039062-0.42969 0.0625-0.65625 0.0625-0.51172 0-0.91797-0.14062-1.2188-0.42188-0.29297-0.28906-0.4375-0.67578-0.4375-1.1562 0-0.5 0.14844-0.89062 0.45312-1.1719 0.30078-0.28125 0.71875-0.42188 1.25-0.42188 0.19531 0 0.39062 0.023437 0.57812 0.0625 0.1875 0.03125 0.36328 0.089844 0.53125 0.17188v0.625c-0.16797-0.09375-0.33984-0.16016-0.51562-0.20312-0.16797-0.050781-0.33594-0.078125-0.5-0.078125-0.3125 0-0.55859 0.089844-0.73438 0.26562-0.16797 0.16797-0.25 0.41797-0.25 0.75 0 0.32422 0.082031 0.57422 0.25 0.75 0.16406 0.16797 0.39844 0.25 0.70312 0.25 0.082031 0 0.15625-0.003906 0.21875-0.015625 0.070312-0.007812 0.13281-0.023438 0.1875-0.046875v-0.59375h-0.46875v-0.51562h1.2188z"/>
  </symbol>
  <symbol id="j" overflow="visible">
   <path d="m2.6562-1.3906v1.3906h-0.73438v-1.0625c0-0.19531-0.007813-0.33203-0.015625-0.40625-0.011719-0.082031-0.027344-0.14062-0.046875-0.17188-0.03125-0.050781-0.074219-0.085937-0.125-0.10938-0.042969-0.03125-0.09375-0.046875-0.15625-0.046875-0.15625 0-0.28125 0.0625-0.375 0.1875-0.085937 0.11719-0.125 0.27734-0.125 0.48438v1.125h-0.71875v-3.1875h0.71875v1.2344c0.11328-0.13281 0.23438-0.23438 0.35938-0.29688s0.25781-0.09375 0.40625-0.09375c0.26953 0 0.47266 0.085938 0.60938 0.25 0.13281 0.15625 0.20312 0.39062 0.20312 0.70312z"/>
  </symbol>
  <symbol id="u" overflow="visible">
   <path d="m0.35938-2.2969h0.71875v2.2969h-0.71875zm0-0.89062h0.71875v0.60938h-0.71875z"/>
  </symbol>
  <symbol id="t" overflow="visible">
   <path d="m2.1406-2.2188v0.5625c-0.15625-0.070312-0.30859-0.125-0.45312-0.15625-0.14844-0.03125-0.28125-0.046875-0.40625-0.046875-0.14844 0-0.25781 0.023437-0.32812 0.0625-0.0625 0.03125-0.09375 0.085937-0.09375 0.15625 0 0.054687 0.023437 0.09375 0.078125 0.125 0.050781 0.03125 0.14453 0.058594 0.28125 0.078125l0.125 0.015625c0.375 0.054687 0.625 0.13281 0.75 0.23438 0.13281 0.10547 0.20312 0.27734 0.20312 0.51562 0 0.24219-0.09375 0.42188-0.28125 0.54688-0.17969 0.125-0.44531 0.1875-0.79688 0.1875-0.15625 0-0.32031-0.015625-0.48438-0.046875-0.15625-0.019531-0.32031-0.050781-0.48438-0.09375v-0.5625c0.14453 0.074219 0.29688 0.13281 0.45312 0.17188 0.15625 0.03125 0.3125 0.046875 0.46875 0.046875 0.13281 0 0.23828-0.019531 0.3125-0.0625 0.070313-0.039063 0.10938-0.097656 0.10938-0.17188 0-0.070312-0.027344-0.125-0.078125-0.15625-0.042969-0.03125-0.13672-0.054688-0.28125-0.078125l-0.14062-0.015625c-0.32422-0.039062-0.55469-0.11328-0.6875-0.21875-0.125-0.11328-0.1875-0.28125-0.1875-0.5 0-0.25 0.082031-0.42969 0.25-0.54688 0.16406-0.11328 0.42188-0.17188 0.76562-0.17188 0.13281 0 0.27344 0.011719 0.42188 0.03125 0.14453 0.023438 0.30469 0.054688 0.48438 0.09375z"/>
  </symbol>
  <symbol id="s" overflow="visible">
   <path d="m0.39062-3.0469h1l0.6875 1.625 0.70312-1.625h1v3.0469h-0.75v-2.2344l-0.70312 1.6406h-0.5l-0.70312-1.6406v2.2344h-0.73438z"/>
  </symbol>
  <symbol id="i" overflow="visible">
   <path d="m0.32812-0.89062v-1.4062h0.73438v0.23438 0.46875 0.375c0 0.1875 0.003906 0.32422 0.015625 0.40625 0.007813 0.074219 0.023437 0.13281 0.046875 0.17188 0.03125 0.042969 0.066406 0.078125 0.10938 0.10938 0.050781 0.023438 0.10938 0.03125 0.17188 0.03125 0.15625 0 0.27344-0.054688 0.35938-0.17188 0.082031-0.11328 0.125-0.27344 0.125-0.48438v-1.1406h0.73438v2.2969h-0.73438v-0.32812c-0.10547 0.13672-0.21875 0.23438-0.34375 0.29688s-0.26172 0.09375-0.40625 0.09375c-0.26172 0-0.46484-0.078125-0.60938-0.23438-0.13672-0.16406-0.20312-0.40625-0.20312-0.71875z"/>
  </symbol>
  <symbol id="h" overflow="visible">
   <path d="m0.35938-2.2969h0.71875v2.25c0 0.3125-0.074219 0.54688-0.21875 0.70312-0.14844 0.16406-0.35938 0.25-0.64062 0.25h-0.35938v-0.48438h0.125c0.14453 0 0.24219-0.03125 0.29688-0.09375 0.050781-0.0625 0.078125-0.1875 0.078125-0.375zm0-0.89062h0.71875v0.60938h-0.71875z"/>
  </symbol>
  <symbol id="r" overflow="visible">
   <path d="m1.8594-3.1875v0.48438h-0.40625c-0.10547 0-0.17969 0.023437-0.21875 0.0625-0.042969 0.03125-0.0625 0.09375-0.0625 0.1875v0.15625h0.625v0.53125h-0.625v1.7656h-0.73438v-1.7656h-0.35938v-0.53125h0.35938v-0.15625c0-0.25 0.066406-0.42969 0.20312-0.54688 0.14453-0.125 0.36328-0.1875 0.65625-0.1875z"/>
  </symbol>
  <symbol id="e" overflow="visible">
   <path d="m1.4375-1.8281c-0.15625 0-0.28125 0.0625-0.375 0.1875-0.085938 0.11719-0.125 0.28125-0.125 0.5s0.039062 0.38672 0.125 0.5c0.09375 0.11719 0.21875 0.17188 0.375 0.17188 0.16406 0 0.28906-0.054688 0.375-0.17188 0.082031-0.11328 0.125-0.28125 0.125-0.5s-0.042969-0.38281-0.125-0.5c-0.085938-0.125-0.21094-0.1875-0.375-0.1875zm0-0.51562c0.39453 0 0.70312 0.10938 0.92188 0.32812 0.22656 0.21094 0.34375 0.5 0.34375 0.875s-0.11719 0.67188-0.34375 0.89062c-0.21875 0.21094-0.52734 0.3125-0.92188 0.3125-0.39844 0-0.70312-0.10156-0.92188-0.3125-0.21875-0.21875-0.32812-0.51562-0.32812-0.89062s0.10938-0.66406 0.32812-0.875c0.21875-0.21875 0.52344-0.32812 0.92188-0.32812z"/>
  </symbol>
  <symbol id="q" overflow="visible">
   <path d="m2.4688-1.9062c0.09375-0.14453 0.20312-0.25391 0.32812-0.32812 0.13281-0.070313 0.27344-0.10938 0.42188-0.10938 0.26953 0 0.47266 0.085938 0.60938 0.25 0.13281 0.15625 0.20312 0.39062 0.20312 0.70312v1.3906h-0.73438v-1.1875-0.0625-0.078125c0-0.16406-0.027344-0.28516-0.078125-0.35938-0.042969-0.070312-0.11719-0.10938-0.21875-0.10938-0.14844 0-0.25781 0.058594-0.32812 0.17188-0.074219 0.11719-0.10938 0.28125-0.10938 0.5v1.125h-0.73438v-1.1875c0-0.25781-0.027344-0.42578-0.078125-0.5-0.042969-0.070312-0.12109-0.10938-0.23438-0.10938-0.13672 0-0.24609 0.058594-0.32812 0.17188-0.074219 0.11719-0.10938 0.28125-0.10938 0.5v1.125h-0.73438v-2.2969h0.73438v0.34375c0.09375-0.13281 0.19531-0.23438 0.3125-0.29688 0.11328-0.0625 0.24219-0.09375 0.39062-0.09375 0.15625 0 0.28906 0.042969 0.40625 0.125 0.125 0.074219 0.21875 0.17969 0.28125 0.3125z"/>
  </symbol>
  <symbol id="p" overflow="visible">
   <path d="m0.39062-3.0469h0.875l1.1094 2.0938v-2.0938h0.75v3.0469h-0.89062l-1.1094-2.0938v2.0938h-0.73438z"/>
  </symbol>
  <symbol id="o" overflow="visible">
   <path d="m2.6562-1.3906v1.3906h-0.73438v-1.0625c0-0.19531-0.007813-0.33203-0.015625-0.40625-0.011719-0.082031-0.027344-0.14062-0.046875-0.17188-0.03125-0.050781-0.074219-0.085937-0.125-0.10938-0.042969-0.03125-0.09375-0.046875-0.15625-0.046875-0.15625 0-0.28125 0.0625-0.375 0.1875-0.085937 0.11719-0.125 0.27734-0.125 0.48438v1.125h-0.71875v-2.2969h0.71875v0.34375c0.11328-0.13281 0.23438-0.23438 0.35938-0.29688s0.25781-0.09375 0.40625-0.09375c0.26953 0 0.47266 0.085938 0.60938 0.25 0.13281 0.15625 0.20312 0.39062 0.20312 0.70312z"/>
  </symbol>
  <symbol id="n" overflow="visible">
   <path d="m0.39062-3.0469h1.2969c0.39453 0 0.69141 0.089844 0.89062 0.26562 0.20703 0.16797 0.3125 0.40625 0.3125 0.71875 0 0.32422-0.10547 0.57422-0.3125 0.75-0.19922 0.16797-0.49609 0.25-0.89062 0.25h-0.51562v1.0625h-0.78125zm0.78125 0.5625v0.85938h0.4375c0.15625 0 0.26953-0.035156 0.34375-0.10938 0.082031-0.082031 0.125-0.19141 0.125-0.32812 0-0.13281-0.042969-0.23828-0.125-0.3125-0.074219-0.070312-0.1875-0.10938-0.34375-0.10938z"/>
  </symbol>
  <symbol id="m" overflow="visible">
   <path d="m2.2031-2.2188v0.59375c-0.10547-0.0625-0.21094-0.10938-0.3125-0.14062-0.09375-0.039063-0.19531-0.0625-0.29688-0.0625-0.21094 0-0.37109 0.0625-0.48438 0.1875-0.11719 0.11719-0.17188 0.28125-0.17188 0.5 0 0.21094 0.054688 0.375 0.17188 0.5 0.11328 0.11719 0.27344 0.17188 0.48438 0.17188 0.11328 0 0.22266-0.015625 0.32812-0.046875 0.10156-0.03125 0.19531-0.082031 0.28125-0.15625v0.60938c-0.11719 0.042969-0.23438 0.070312-0.35938 0.09375-0.11719 0.019531-0.23047 0.03125-0.34375 0.03125-0.41797 0-0.74219-0.10156-0.96875-0.3125-0.23047-0.21875-0.34375-0.51562-0.34375-0.89062s0.11328-0.66406 0.34375-0.875c0.22656-0.21875 0.55078-0.32812 0.96875-0.32812 0.11328 0 0.22656 0.011719 0.34375 0.03125 0.125 0.023438 0.24219 0.054688 0.35938 0.09375z"/>
  </symbol>
 </defs>
 <g>
  <path d="m202.88 254.85 244.79-244.79c14.25-13.414 36.047-13.414 49.461 0s13.414 35.211 0 49.461l-220.48 220.48 220.48 220.48c13.414 13.414 13.414 36.047 0 49.461-13.414 13.414-35.211 13.414-49.461 0l-244.79-245.63c-13.414-13.414-13.414-35.211 0-49.461z" fill-rule="evenodd"/>
  <use x="192.8125" y="572.574219" xlink:href="#v"/>
  <use x="195.890625" y="572.574219" xlink:href="#d"/>
  <use x="197.957031" y="572.574219" xlink:href="#c"/>
  <use x="200.800781" y="572.574219" xlink:href="#b"/>
  <use x="203.628906" y="572.574219" xlink:href="#a"/>
  <use x="205.632812" y="572.574219" xlink:href="#c"/>
  <use x="208.476562" y="572.574219" xlink:href="#l"/>
  <use x="212.933594" y="572.574219" xlink:href="#g"/>
  <use x="215.9375" y="572.574219" xlink:href="#f"/>
  <use x="220.128906" y="572.574219" xlink:href="#k"/>
  <use x="223.566406" y="572.574219" xlink:href="#j"/>
  <use x="226.550781" y="572.574219" xlink:href="#u"/>
  <use x="227.988281" y="572.574219" xlink:href="#f"/>
  <use x="230.722656" y="572.574219" xlink:href="#b"/>
  <use x="233.550781" y="572.574219" xlink:href="#a"/>
  <use x="235.554687" y="572.574219" xlink:href="#t"/>
  <use x="239.507812" y="572.574219" xlink:href="#s"/>
  <use x="243.679687" y="572.574219" xlink:href="#i"/>
  <use x="246.664062" y="572.574219" xlink:href="#h"/>
  <use x="248.097656" y="572.574219" xlink:href="#a"/>
  <use x="250.101562" y="572.574219" xlink:href="#b"/>
  <use x="252.933594" y="572.574219" xlink:href="#g"/>
  <use x="255.933594" y="572.574219" xlink:href="#b"/>
  <use x="192.8125" y="576.765625" xlink:href="#r"/>
  <use x="194.636719" y="576.765625" xlink:href="#d"/>
  <use x="196.707031" y="576.765625" xlink:href="#e"/>
  <use x="199.585938" y="576.765625" xlink:href="#q"/>
  <use x="205.410156" y="576.765625" xlink:href="#a"/>
  <use x="207.414062" y="576.765625" xlink:href="#j"/>
  <use x="210.398437" y="576.765625" xlink:href="#c"/>
  <use x="214.703125" y="576.765625" xlink:href="#p"/>
  <use x="218.210938" y="576.765625" xlink:href="#e"/>
  <use x="221.089844" y="576.765625" xlink:href="#i"/>
  <use x="224.074219" y="576.765625" xlink:href="#o"/>
  <use x="228.515625" y="576.765625" xlink:href="#n"/>
  <use x="231.589844" y="576.765625" xlink:href="#d"/>
  <use x="233.65625" y="576.765625" xlink:href="#e"/>
  <use x="236.535156" y="576.765625" xlink:href="#h"/>
  <use x="237.972656" y="576.765625" xlink:href="#c"/>
  <use x="240.816406" y="576.765625" xlink:href="#m"/>
  <use x="243.300781" y="576.765625" xlink:href="#a"/>
 </g>
</svg>
