<?xml version="1.0" encoding="UTF-8"?>
<svg width="60%" height="110pt" version="1.1" viewBox="0 0 700 700" xmlns="http://www.w3.org/2000/svg" xmlns:xlink="http://www.w3.org/1999/xlink">

 <g>
  <path d="m202.88 254.85 244.79-244.79c14.25-13.414 36.047-13.414 49.461 0s13.414 35.211 0 49.461l-220.48 220.48 220.48 220.48c13.414 13.414 13.414 36.047 0 49.461-13.414 13.414-35.211 13.414-49.461 0l-244.79-245.63c-13.414-13.414-13.414-35.211 0-49.461z" fill-rule="evenodd"/>
  <use x="192.8125" y="572.574219" xlink:href="#v"/>
  <use x="195.890625" y="572.574219" xlink:href="#d"/>
  <use x="197.957031" y="572.574219" xlink:href="#c"/>
  <use x="200.800781" y="572.574219" xlink:href="#b"/>
  <use x="203.628906" y="572.574219" xlink:href="#a"/>
  <use x="205.632812" y="572.574219" xlink:href="#c"/>
  <use x="208.476562" y="572.574219" xlink:href="#l"/>
  <use x="212.933594" y="572.574219" xlink:href="#g"/>
  <use x="215.9375" y="572.574219" xlink:href="#f"/>
  <use x="220.128906" y="572.574219" xlink:href="#k"/>
  <use x="223.566406" y="572.574219" xlink:href="#j"/>
  <use x="226.550781" y="572.574219" xlink:href="#u"/>
  <use x="227.988281" y="572.574219" xlink:href="#f"/>
  <use x="230.722656" y="572.574219" xlink:href="#b"/>
  <use x="233.550781" y="572.574219" xlink:href="#a"/>
  <use x="235.554687" y="572.574219" xlink:href="#t"/>
  <use x="239.507812" y="572.574219" xlink:href="#s"/>
  <use x="243.679687" y="572.574219" xlink:href="#i"/>
  <use x="246.664062" y="572.574219" xlink:href="#h"/>
  <use x="248.097656" y="572.574219" xlink:href="#a"/>
  <use x="250.101562" y="572.574219" xlink:href="#b"/>
  <use x="252.933594" y="572.574219" xlink:href="#g"/>
  <use x="255.933594" y="572.574219" xlink:href="#b"/>
  <use x="192.8125" y="576.765625" xlink:href="#r"/>
  <use x="194.636719" y="576.765625" xlink:href="#d"/>
  <use x="196.707031" y="576.765625" xlink:href="#e"/>
  <use x="199.585938" y="576.765625" xlink:href="#q"/>
  <use x="205.410156" y="576.765625" xlink:href="#a"/>
  <use x="207.414062" y="576.765625" xlink:href="#j"/>
  <use x="210.398437" y="576.765625" xlink:href="#c"/>
  <use x="214.703125" y="576.765625" xlink:href="#p"/>
  <use x="218.210938" y="576.765625" xlink:href="#e"/>
  <use x="221.089844" y="576.765625" xlink:href="#i"/>
  <use x="224.074219" y="576.765625" xlink:href="#o"/>
  <use x="228.515625" y="576.765625" xlink:href="#n"/>
  <use x="231.589844" y="576.765625" xlink:href="#d"/>
  <use x="233.65625" y="576.765625" xlink:href="#e"/>
  <use x="236.535156" y="576.765625" xlink:href="#h"/>
  <use x="237.972656" y="576.765625" xlink:href="#c"/>
  <use x="240.816406" y="576.765625" xlink:href="#m"/>
  <use x="243.300781" y="576.765625" xlink:href="#a"/>
 </g>
</svg>
