<?xml version="1.0" encoding="utf-8"?>
<!-- Generator: Adobe Illustrator 24.3.0, SVG Export Plug-In . SVG Version: 6.00 Build 0)  -->
<svg version="1.1" xmlns="http://www.w3.org/2000/svg" xmlns:xlink="http://www.w3.org/1999/xlink" x="0px" y="0px"
	 viewBox="0 0 745.1 741.4" style="enable-background:new 0 0 745.1 741.4;" xml:space="preserve">
<style type="text/css">
	.st0{display:none;}
	.st1{display:inline;}
	.st2{fill:#FAFAFA;stroke:#020203;stroke-width:17;stroke-miterlimit:10;}
	.st3{fill:none;stroke:#020203;stroke-width:17;stroke-miterlimit:10;}
	.st4{display:inline;fill:#020203;}
	.st5{display:inline;fill:#FFFFFF;}
	.st6{display:inline;fill:#FAF8F7;}
	.st7{fill:#FFFFFF;}
	.st8{fill:#020203;}
	.st9{fill:#FAF8F7;}
	.st10{fill:#FAF8F7;stroke:#000000;stroke-width:8;stroke-miterlimit:10;}
	.st11{display:inline;fill:none;}
	.st12{fill:#FAFAFA;stroke:#020203;stroke-width:12;stroke-miterlimit:10;}
	.st13{fill:none;stroke:#020203;stroke-width:12;stroke-miterlimit:10;}
	.st14{fill:#FAF8F7;stroke:#000000;stroke-width:12;stroke-miterlimit:10;}
	.st15{fill:#006A6E;}
	.st16{fill:#051C1B;}
	.st17{fill:none;}
	.st18{fill:#009388;}
	.st19{fill:#0E1E1D;}
</style>
<g id="Layer_1" class="st0">
	<g class="st1">
		<ellipse class="st2" cx="378.3" cy="256.5" rx="109.8" ry="120"/>
		<path class="st3" d="M413.6,143.6c1.2,3.7,1.9,7.6,1.9,11.6c0,31.7-41.9,57.5-93.7,57.5c-16.6,0-32.3-2.7-45.8-7.3"/>
	</g>
	<circle class="st4" cx="323.9" cy="265.1" r="8.8"/>
	<circle class="st4" cx="439.4" cy="265.2" r="8.8"/>
	<g>
		<rect x="242.8" y="300.3" class="st5" width="36.1" height="198.2"/>
		<path class="st4" d="M519.4,311.5c0-10.1-8.2-18.4-18.4-18.4H256.2c-10.1,0-18.4,8.2-18.4,18.4V486c0,10.1,8.2,18.4,18.4,18.4
			h244.8c10.1,0,18.4-8.2,18.4-18.4L519.4,311.5z M290.7,492.6V304.9h170.1v187.7H290.7z M249.6,486V311.5c0-3.6,3-6.6,6.6-6.6h22.7
			v187.7h-22.7C252.6,492.6,249.6,489.6,249.6,486z"/>
		<path class="st5" d="M507,448.3v-93.8c0-12.1-5.8-16.4-12.8-16.4c-7,0-12.8,4.3-12.8,16.4v93.8c0,12.1,5.8,22.1,12.8,22.1
			C501.2,470.4,507,460.7,507,448.3z"/>
		<rect x="290.7" y="304.9" class="st6" width="180.8" height="187.7"/>
	</g>
	<g class="st1">
		<rect x="244.8" y="303.1" class="st7" width="36.1" height="175.6"/>
		<path class="st8" d="M521.4,313.1c0-9-8.2-16.3-18.4-16.3H258.2c-10.1,0-18.4,7.3-18.4,16.3v154.5c0,9,8.2,16.3,18.4,16.3H503
			c10.1,0,18.4-7.3,18.4-16.3L521.4,313.1z M292.6,473.4V307.2h170.1v166.2H292.6z M251.5,467.6V313.1c0-3.2,3-5.9,6.6-5.9h22.7
			v166.2h-22.7C254.5,473.4,251.5,470.8,251.5,467.6z"/>
		<path class="st7" d="M508.9,434.3v-83.1c0-10.8-5.8-14.5-12.8-14.5c-7,0-12.8,3.8-12.8,14.5v83.1c0,10.8,5.8,19.5,12.8,19.5
			C503.2,453.8,508.9,445.2,508.9,434.3z"/>
		<rect x="292.6" y="307.2" class="st9" width="180.8" height="166.2"/>
	</g>
	<path class="st4" d="M435.7,354.2c-19.9-6.6-40-6.8-59.9-0.4c-19.9-6.3-40-6.2-59.9,0.4c-1.9,0.7-3.3,2.5-3.3,4.6v77.8
		c0,1.6,0.7,3,2,3.9c1.3,0.9,2.9,1.2,4.4,0.7c18.3-6.1,37-6.1,55.3,0c0.2,0,0.4,0,0.6,0.1c0.1,0,0.3,0,0.5,0.1
		c0.1,0,0.3,0.1,0.5,0.1c0.5,0,1-0.1,1.5-0.2h0c18.3-6.1,37-6.1,55.3,0c0.4,0.1,0.9,0.2,1.5,0.2c1,0,2-0.3,2.8-0.9
		c1.3-0.9,2-2.4,2-3.9v-77.9C439,356.8,437.6,354.9,435.7,354.2L435.7,354.2z M322.2,430.2v-67.8c16.2-4.7,32.5-4.7,48.7,0v67.7
		c-8.1-2.1-16.2-3.2-24.3-3.2C338.4,427,330.3,428.1,322.2,430.2L322.2,430.2z M429.3,430.2c-8.1-2.1-16.2-3.2-24.3-3.2
		c-8.1,0-16.3,1.1-24.3,3.2v-67.8c16.2-4.7,32.5-4.7,48.7,0L429.3,430.2z"/>
	<g class="st1">
		<path class="st10" d="M242.2,424.8h2.7v11h11.3c2.4,0,4.5-1.5,5.2-3.8l3.3-9.9c0.6-1.9,2.6-3.1,4.5-2.7c2,0.3,3.4,2,3.4,4v6.9
			c0,1.5,0.6,2.9,1.6,3.9c1,1,2.4,1.6,3.9,1.6h16.5c3,0,5.5,2.5,5.5,5.5l0,33c0,3-2.5,5.5-5.5,5.5h-38.5c-8.8,0-17.1-3.5-23.3-9.7
			c-6.2-6.2-9.7-14.6-9.7-23.3c0-10.1,2.1-20.1,6.3-29.2l13.8-33.2"/>
		<line class="st10" x1="244.8" y1="392" x2="244.8" y2="438.3"/>
	</g>
	<g class="st1">
		<path class="st10" d="M516,384.4l14.8,33.2c4.2,9.2,6.3,19.2,6.3,29.2c0,8.8-3.5,17.1-9.7,23.3c-6.2,6.2-14.6,9.7-23.3,9.7h-38.5
			c-3,0-5.5-2.5-5.5-5.5l0-33c0-3,2.5-5.5,5.5-5.5h16.5c1.5,0,2.9-0.6,3.9-1.6c1-1,1.6-2.4,1.6-3.9v-6.9c0-2,1.5-3.7,3.4-4
			c2-0.3,3.9,0.8,4.5,2.7l3.3,9.9c0.7,2.2,2.9,3.8,5.2,3.8h11.3v-11h2.7"/>
		<line class="st10" x1="515.5" y1="382" x2="515.5" y2="438.3"/>
	</g>
	<path id="SVGID_x5F_1_x5F_" class="st11" d="M378.7,116.8c71.4,0,129.3,54.2,129.3,121s-57.9,121-129.3,121s-129.3-54.2-129.3-121
		S307.2,116.8,378.7,116.8z"/>
	<text class="st1">	<textPath  xlink:href="#SVGID_x5F_1_x5F_" startOffset="103.619%">
<tspan  style="font-family:'Superclarendon-Black'; font-size:38.747px; letter-spacing:48.9;">Spring a story</tspan>	</textPath>
</text>
</g>
<g id="B_x26_W" class="st0">
	<g class="st1">
		<g>
			<ellipse class="st2" cx="385.9" cy="287.7" rx="109.8" ry="120"/>
			<path class="st3" d="M421.2,174.7c1.2,3.7,1.9,7.6,1.9,11.6c0,31.7-41.9,57.5-93.7,57.5c-16.6,0-32.3-2.7-45.8-7.3"/>
		</g>
		<circle class="st8" cx="331.4" cy="296.2" r="8.8"/>
		<circle class="st8" cx="446.9" cy="296.3" r="8.8"/>
		<g>
			<rect x="252.3" y="334.2" class="st7" width="36.1" height="175.6"/>
			<path class="st8" d="M528.9,344.2c0-9-8.2-16.3-18.4-16.3H265.7c-10.1,0-18.4,7.3-18.4,16.3v154.5c0,9,8.2,16.3,18.4,16.3h244.8
				c10.1,0,18.4-7.3,18.4-16.3L528.9,344.2z M300.2,504.5V338.3h170.1v166.2H300.2z M259.1,498.7V344.2c0-3.2,3-5.9,6.6-5.9h22.7
				v166.2h-22.7C262.1,504.5,259.1,501.9,259.1,498.7z"/>
			<path class="st7" d="M516.5,465.4v-83.1c0-10.8-5.8-14.5-12.8-14.5c-7,0-12.8,3.8-12.8,14.5v83.1c0,10.8,5.8,19.5,12.8,19.5
				C510.7,484.9,516.5,476.3,516.5,465.4z"/>
			<rect x="300.2" y="338.3" class="st9" width="180.8" height="166.2"/>
		</g>
		<path class="st8" d="M443.2,385.3c-19.9-6.6-40-6.8-59.9-0.4c-19.9-6.3-40-6.2-59.9,0.4c-1.9,0.7-3.3,2.5-3.3,4.6v77.8
			c0,1.6,0.7,3,2,3.9c1.3,0.9,2.9,1.2,4.4,0.7c18.3-6.1,37-6.1,55.3,0c0.2,0,0.4,0,0.6,0.1c0.1,0,0.3,0,0.5,0.1
			c0.1,0,0.3,0.1,0.5,0.1c0.5,0,1-0.1,1.5-0.2h0c18.3-6.1,37-6.1,55.3,0c0.4,0.1,0.9,0.2,1.5,0.2c1,0,2-0.3,2.8-0.9
			c1.3-0.9,2-2.4,2-3.9V390C446.5,387.9,445.2,386,443.2,385.3L443.2,385.3z M329.7,461.3v-67.8c16.2-4.7,32.5-4.7,48.7,0v67.7
			c-8.1-2.1-16.2-3.2-24.3-3.2C346,458.1,337.8,459.2,329.7,461.3L329.7,461.3z M436.8,461.3c-8.1-2.1-16.2-3.2-24.3-3.2
			c-8.1,0-16.3,1.1-24.3,3.2v-67.8c16.2-4.7,32.5-4.7,48.7,0L436.8,461.3z"/>
		<g>
			<path class="st10" d="M249.8,455.9h2.7v11h11.3c2.4,0,4.5-1.5,5.2-3.8l3.3-9.9c0.6-1.9,2.6-3.1,4.5-2.7c2,0.3,3.4,2,3.4,4v6.9
				c0,1.5,0.6,2.9,1.6,3.9c1,1,2.4,1.6,3.9,1.6h16.5c3,0,5.5,2.5,5.5,5.5l0,33c0,3-2.5,5.5-5.5,5.5h-38.5c-8.8,0-17.1-3.5-23.3-9.7
				c-6.2-6.2-9.7-14.6-9.7-23.3c0-10.1,2.1-20.1,6.3-29.2l13.8-33.2"/>
			<line class="st10" x1="252.4" y1="423.1" x2="252.4" y2="469.4"/>
		</g>
		<g>
			<path class="st10" d="M523.5,415.5l14.8,33.2c4.2,9.2,6.3,19.2,6.3,29.2c0,8.8-3.5,17.1-9.7,23.3c-6.2,6.2-14.6,9.7-23.3,9.7
				h-38.5c-3,0-5.5-2.5-5.5-5.5l0-33c0-3,2.5-5.5,5.5-5.5h16.5c1.5,0,2.9-0.6,3.9-1.6c1-1,1.6-2.4,1.6-3.9v-6.9c0-2,1.5-3.7,3.4-4
				c2-0.3,3.9,0.8,4.5,2.7l3.3,9.9c0.7,2.2,2.9,3.8,5.2,3.8H523v-11h2.7"/>
			<line class="st10" x1="523.1" y1="413.1" x2="523.1" y2="469.4"/>
		</g>
	</g>
	<path id="SVGID_x5F_2_x5F_" class="st11" d="M160.6,217.4c75.6-118.6,235.4-151.9,357-74.4s158.9,236.4,83.4,355
		s-235.4,151.9-357,74.4S85,336,160.6,217.4z"/>
	<text class="st1">	<textPath  xlink:href="#SVGID_x5F_2_x5F_" startOffset="100%">
<tspan  style="font-family:'Superclarendon-Black'; font-size:152.3045px; letter-spacing:3.6;">Spring a story....    .</tspan>	</textPath>
</text>
</g>
<g id="B_x26_W_final" class="st0">
	<g class="st1">
		<g>
			<ellipse class="st12" cx="374.4" cy="316.9" rx="109.8" ry="120"/>
			<path class="st13" d="M409.7,203.9c1.2,3.7,1.9,7.6,1.9,11.6c0,31.7-41.9,57.5-93.7,57.5c-16.6,0-32.3-2.7-45.8-7.3"/>
		</g>
		<circle class="st8" cx="322.9" cy="325.4" r="8.8"/>
		<circle class="st8" cx="427.4" cy="325.5" r="8.8"/>
		<g>
			<rect x="240.8" y="363.4" class="st7" width="36.1" height="175.6"/>
			<path class="st8" d="M517.4,373.4c0-9-8.2-16.3-18.4-16.3H254.2c-10.1,0-18.4,7.3-18.4,16.3v154.5c0,9,8.2,16.3,18.4,16.3h244.8
				c10.1,0,18.4-7.3,18.4-16.3L517.4,373.4z M288.7,533.8V367.5h170.1v166.2H288.7z M247.6,527.9V373.4c0-3.2,3-5.9,6.6-5.9h22.7
				v166.2h-22.7C250.6,533.8,247.6,531.1,247.6,527.9z"/>
			<rect x="288.7" y="367.5" class="st9" width="180.8" height="166.2"/>
			<circle class="st7" cx="490.9" cy="455.2" r="12.4"/>
		</g>
		<path class="st8" d="M431.7,414.5c-19.9-6.6-40-6.8-59.9-0.4c-19.9-6.3-40-6.2-59.9,0.4c-1.9,0.7-3.3,2.5-3.3,4.6V497
			c0,1.6,0.7,3,2,3.9c1.3,0.9,2.9,1.2,4.4,0.7c18.3-6.1,37-6.1,55.3,0c0.2,0,0.4,0,0.6,0.1c0.1,0,0.3,0,0.5,0.1
			c0.1,0,0.3,0.1,0.5,0.1c0.5,0,1-0.1,1.5-0.2h0c18.3-6.1,37-6.1,55.3,0c0.4,0.1,0.9,0.2,1.5,0.2c1,0,2-0.3,2.8-0.9
			c1.3-0.9,2-2.4,2-3.9v-77.9C435,417.1,433.7,415.2,431.7,414.5L431.7,414.5z M318.3,490.5v-67.8c16.2-4.7,32.5-4.7,48.7,0v67.7
			c-8.1-2.1-16.2-3.2-24.3-3.2C334.5,487.3,326.3,488.4,318.3,490.5L318.3,490.5z M425.3,490.5c-8.1-2.1-16.2-3.2-24.3-3.2
			c-8.1,0-16.3,1.1-24.3,3.2v-67.8c16.2-4.7,32.5-4.7,48.7,0L425.3,490.5z"/>
		<g>
			<path class="st14" d="M242.4,494.1h49.5c8.5,0.2,8.5,7.5,8.5,10.5l0,21c0,3.7,0,12.5-8.5,12.5h-38.5c-8.8,0-17.1-3.5-23.3-9.7
				c-6.2-6.2-9.7-14.6-9.7-23.3c0-10.1,2.1-20.1,6.3-29.2l13.8-33.2h1.1L242.4,494.1z"/>
		</g>
		<g>
			<line class="st10" x1="511.6" y1="442.3" x2="511.6" y2="498.6"/>
		</g>
		<g>
			<path class="st14" d="M509.8,494.2h-47.5c-8.5,0.2-8.5,7.5-8.5,10.5l0,21c0,3.7,0,12.5,8.5,12.5h38.5c8.8,0,17.1-3.5,23.3-9.7
				c6.2-6.2,9.7-14.6,9.7-23.3c0-10.1-2.1-20.1-6.3-29.2l-13.8-33.2h-3.1L509.8,494.2z"/>
		</g>
	</g>
	<path id="SVGID_x5F_3_x5F_" class="st11" d="M431.4,133.1c137.5,29.3,224.7,167.3,194.6,308.3c-30,141-165.8,231.6-303.4,202.3
		C185.2,614.5,98,476.5,128.1,335.5S293.9,103.9,431.4,133.1z"/>
	<text class="st1">	<textPath  xlink:href="#SVGID_x5F_3_x5F_" startOffset="100%">
<tspan  style="font-family:'Avenir-Heavy'; font-size:157px; letter-spacing:8.9;">Spring a story...........</tspan><tspan  style="font-family:'Superclarendon-Black'; font-size:152.3045px; letter-spacing:3.6;">   .</tspan>	</textPath>
</text>
</g>
<g id="Layer_5">
	<g>
		<g>
			<ellipse class="st12" cx="369.9" cy="307.8" rx="109.8" ry="120"/>
			<path class="st13" d="M405.2,194.8c1.2,3.7,1.9,7.6,1.9,11.6c0,31.7-41.9,57.5-93.7,57.5c-16.6,0-32.3-2.7-45.8-7.3"/>
		</g>
		<circle class="st8" cx="318.4" cy="316.3" r="8.8"/>
		<circle class="st8" cx="422.9" cy="316.4" r="8.8"/>
		<g>
			<rect x="236.3" y="354.4" class="st7" width="36.1" height="175.6"/>
			<path class="st8" d="M512.9,364.3c0-9-8.2-16.3-18.4-16.3H249.7c-10.1,0-18.4,7.3-18.4,16.3v154.5c0,9,8.2,16.3,18.4,16.3h244.8
				c10.1,0,18.4-7.3,18.4-16.3L512.9,364.3z M284.2,524.7V358.5h170.1v166.2H284.2z M243.1,518.8V364.3c0-3.2,3-5.9,6.6-5.9h22.7
				v166.2h-22.7C246.1,524.7,243.1,522.1,243.1,518.8z"/>
			<rect x="284.2" y="358.5" class="st15" width="180.8" height="166.2"/>
			<circle class="st7" cx="486.4" cy="446.1" r="12.4"/>
		</g>
		<path class="st16" d="M427.2,405.5c-19.9-6.6-40-6.8-59.9-0.4c-19.9-6.3-40-6.2-59.9,0.4c-1.9,0.7-3.3,2.5-3.3,4.6V488
			c0,1.6,0.7,3,2,3.9c1.3,0.9,2.9,1.2,4.4,0.7c18.3-6.1,37-6.1,55.3,0c0.2,0,0.4,0,0.6,0.1c0.1,0,0.3,0,0.5,0.1
			c0.1,0,0.3,0.1,0.5,0.1c0.5,0,1-0.1,1.5-0.2h0c18.3-6.1,37-6.1,55.3,0c0.4,0.1,0.9,0.2,1.5,0.2c1,0,2-0.3,2.8-0.9
			c1.3-0.9,2-2.4,2-3.9v-77.9C430.5,408,429.2,406.2,427.2,405.5L427.2,405.5z M313.8,481.5v-67.8c16.2-4.7,32.5-4.7,48.7,0v67.7
			c-8.1-2.1-16.2-3.2-24.3-3.2C330,478.2,321.8,479.3,313.8,481.5L313.8,481.5z M420.8,481.5c-8.1-2.1-16.2-3.2-24.3-3.2
			c-8.1,0-16.3,1.1-24.3,3.2v-67.8c16.2-4.7,32.5-4.7,48.7,0L420.8,481.5z"/>
		<g>
			<path class="st14" d="M237.9,485.1h49.5c8.5,0.2,8.5,7.5,8.5,10.5l0,21c0,3.7,0,12.5-8.5,12.5h-38.5c-8.8,0-17.1-3.5-23.3-9.7
				c-6.2-6.2-9.7-14.6-9.7-23.3c0-10.1,2.1-20.1,6.3-29.2l13.8-33.2h1.1L237.9,485.1z"/>
		</g>
		<g>
			<line class="st10" x1="507.1" y1="433.2" x2="507.1" y2="489.5"/>
		</g>
		<g>
			<path class="st14" d="M505.3,485.2h-47.5c-8.5,0.2-8.5,7.5-8.5,10.5l0,21c0,3.7,0,12.5,8.5,12.5h38.5c8.8,0,17.1-3.5,23.3-9.7
				c6.2-6.2,9.7-14.6,9.7-23.3c0-10.1-2.1-20.1-6.3-29.2l-13.8-33.2h-3.1L505.3,485.2z"/>
		</g>
	</g>
	<path id="SVGID_x5F_4_x5F_" class="st17" d="M426.9,124.1c137.5,29.3,224.7,167.3,194.6,308.3c-30,141-165.8,231.6-303.4,202.3
		C180.7,605.5,93.5,467.4,123.6,326.4S289.4,94.8,426.9,124.1z"/>
	<text>	<textPath  xlink:href="#SVGID_x5F_4_x5F_" startOffset="100%">
<tspan  class="st15" style="font-family:'Avenir-Heavy'; font-size:157px; letter-spacing:8.9;">Spring a story...........</tspan><tspan  style="font-family:'Superclarendon-Black'; font-size:152.3045px; letter-spacing:3.6;">   .</tspan>	</textPath>
</text>
</g>
<g id="Colour" class="st0">
	<g class="st1">
		<g>
			<ellipse class="st2" cx="379.6" cy="290.9" rx="109.8" ry="120"/>
			<path class="st3" d="M415,177.9c1.2,3.7,1.9,7.6,1.9,11.6c0,31.7-41.9,57.5-93.7,57.5c-16.6,0-32.3-2.7-45.8-7.3"/>
		</g>
		<circle class="st8" cx="325.2" cy="299.4" r="8.8"/>
		<circle class="st8" cx="440.7" cy="299.5" r="8.8"/>
		<g>
			<rect x="246.1" y="337.4" class="st7" width="36.1" height="175.6"/>
			<path class="st8" d="M522.7,347.4c0-9-8.2-16.3-18.4-16.3H259.5c-10.1,0-18.4,7.3-18.4,16.3v154.5c0,9,8.2,16.3,18.4,16.3h244.8
				c10.1,0,18.4-7.3,18.4-16.3L522.7,347.4z M293.9,507.8V341.5h170.1v166.2H293.9z M252.9,501.9V347.4c0-3.2,3-5.9,6.6-5.9h22.7
				v166.2h-22.7C255.9,507.8,252.9,505.1,252.9,501.9z"/>
			<path class="st7" d="M510.2,468.6v-83.1c0-10.8-5.8-14.5-12.8-14.5c-7,0-12.8,3.8-12.8,14.5v83.1c0,10.8,5.8,19.5,12.8,19.5
				C504.5,488.1,510.2,479.5,510.2,468.6z"/>
			<rect x="293.9" y="341.5" class="st18" width="180.8" height="166.2"/>
		</g>
		<path class="st19" d="M437,388.6c-19.9-6.6-40-6.8-59.9-0.4c-19.9-6.3-40-6.2-59.9,0.4c-1.9,0.7-3.3,2.5-3.3,4.6V471
			c0,1.6,0.7,3,2,3.9c1.3,0.9,2.9,1.2,4.4,0.7c18.3-6.1,37-6.1,55.3,0c0.2,0,0.4,0,0.6,0.1c0.1,0,0.3,0,0.5,0.1
			c0.1,0,0.3,0.1,0.5,0.1c0.5,0,1-0.1,1.5-0.2h0c18.3-6.1,37-6.1,55.3,0c0.4,0.1,0.9,0.2,1.5,0.2c1,0,2-0.3,2.8-0.9
			c1.3-0.9,2-2.4,2-3.9v-77.9C440.3,391.1,438.9,389.2,437,388.6L437,388.6z M323.5,464.5v-67.8c16.2-4.7,32.5-4.7,48.7,0v67.7
			c-8.1-2.1-16.2-3.2-24.3-3.2C339.7,461.3,331.6,462.4,323.5,464.5L323.5,464.5z M430.6,464.5c-8.1-2.1-16.2-3.2-24.3-3.2
			c-8.1,0-16.3,1.1-24.3,3.2v-67.8c16.2-4.7,32.5-4.7,48.7,0L430.6,464.5z"/>
		<g>
			<path class="st10" d="M243.6,459.2h2.7v11h11.3c2.4,0,4.5-1.5,5.2-3.8l3.3-9.9c0.6-1.9,2.6-3.1,4.5-2.7c2,0.3,3.4,2,3.4,4v6.9
				c0,1.5,0.6,2.9,1.6,3.9c1,1,2.4,1.6,3.9,1.6h16.5c3,0,5.5,2.5,5.5,5.5l0,33c0,3-2.5,5.5-5.5,5.5h-38.5c-8.8,0-17.1-3.5-23.3-9.7
				c-6.2-6.2-9.7-14.6-9.7-23.3c0-10.1,2.1-20.1,6.3-29.2l13.8-33.2"/>
			<line class="st10" x1="246.2" y1="426.3" x2="246.2" y2="472.6"/>
		</g>
		<g>
			<path class="st10" d="M517.3,418.7l14.8,33.2c4.2,9.2,6.3,19.2,6.3,29.2c0,8.8-3.5,17.1-9.7,23.3c-6.2,6.2-14.6,9.7-23.3,9.7
				h-38.5c-3,0-5.5-2.5-5.5-5.5l0-33c0-3,2.5-5.5,5.5-5.5h16.5c1.5,0,2.9-0.6,3.9-1.6c1-1,1.6-2.4,1.6-3.9v-6.9c0-2,1.5-3.7,3.4-4
				c2-0.3,3.9,0.8,4.5,2.7l3.3,9.9c0.7,2.2,2.9,3.8,5.2,3.8h11.3v-11h2.7"/>
			<line class="st10" x1="516.9" y1="416.3" x2="516.9" y2="472.6"/>
		</g>
	</g>
	<path id="SVGID_x5F_5_x5F_" class="st11" d="M154.3,220.6c75.6-118.6,235.4-151.9,357-74.4s158.9,236.4,83.4,355
		s-235.4,151.9-357,74.4S78.8,339.2,154.3,220.6z"/>
	<text class="st1">	<textPath  xlink:href="#SVGID_x5F_5_x5F_" startOffset="100%">
<tspan  class="st18" style="font-family:'Superclarendon-Black'; font-size:152.3045px; letter-spacing:3.6;">Spring </tspan><tspan  class="st18" style="font-family:'Superclarendon-Black'; font-size:152.3045px; letter-spacing:3.6;">a story....</tspan><tspan  style="font-family:'Superclarendon-Black'; font-size:152.3045px; letter-spacing:3.6;">    .</tspan>	</textPath>
</text>
</g>
</svg>
